<svg width="33" height="33" viewBox="0 0 33 33" fill="none" xmlns="http://www.w3.org/2000/svg">
<path d="M21.0719 4.91653L19.8113 4.45794C19.1818 4.2362 18.5065 4.17692 17.848 4.28561C17.1895 4.3943 16.5691 4.66745 16.0442 5.07973C13.469 7.07853 11.7606 10.5927 10.9151 15.6234C10.0711 20.6455 10.5539 24.4157 12.3618 26.9337C13.1271 28.0005 14.4357 28.5631 15.7944 28.4117L17.1585 28.2595C18.4322 28.1169 19.4443 27.0779 19.5225 25.8309L19.6818 23.3304C19.7181 22.8111 19.5819 22.2944 19.2944 21.8605C19.0068 21.4266 18.584 21.0998 18.0916 20.9309L15.4042 19.9891C15.0497 18.7072 14.9652 17.3656 15.1561 16.0493C15.3448 14.6844 15.7747 13.4775 16.4474 12.4307L19.5339 12.1693C20.645 12.0753 21.5957 11.2939 21.8854 10.2337L22.5526 7.80504C22.7192 7.22576 22.6588 6.60474 22.3837 6.06842C22.1086 5.5321 21.6394 5.1208 21.0716 4.91825L21.0719 4.91653Z" fill="white"/>
</svg>
