<svg width="218" height="20" viewBox="0 0 218 20" fill="none" xmlns="http://www.w3.org/2000/svg">
<path d="M29.7109 10.6953C29.7109 9.86719 29.8724 9.1224 30.1953 8.46094C30.5234 7.79948 30.9766 7.28906 31.5547 6.92969C32.138 6.57031 32.8021 6.39062 33.5469 6.39062C34.6979 6.39062 35.6276 6.78906 36.3359 7.58594C37.0495 8.38281 37.4062 9.44271 37.4062 10.7656V10.8672C37.4062 11.6901 37.2474 12.4297 36.9297 13.0859C36.6172 13.737 36.1667 14.2448 35.5781 14.6094C34.9948 14.974 34.3229 15.1562 33.5625 15.1562C32.4167 15.1562 31.487 14.7578 30.7734 13.9609C30.0651 13.1641 29.7109 12.1094 29.7109 10.7969V10.6953ZM31.1641 10.8672C31.1641 11.8047 31.3802 12.5573 31.8125 13.125C32.25 13.6927 32.8333 13.9766 33.5625 13.9766C34.2969 13.9766 34.8802 13.6901 35.3125 13.1172C35.7448 12.5391 35.9609 11.7318 35.9609 10.6953C35.9609 9.76823 35.7396 9.01823 35.2969 8.44531C34.8594 7.86719 34.276 7.57812 33.5469 7.57812C32.8333 7.57812 32.2578 7.86198 31.8203 8.42969C31.3828 8.9974 31.1641 9.8099 31.1641 10.8672ZM39.9297 15V7.66406H38.5938V6.54688H39.9297V5.67969C39.9297 4.77344 40.1719 4.07292 40.6562 3.57812C41.1406 3.08333 41.8255 2.83594 42.7109 2.83594C43.0443 2.83594 43.375 2.88021 43.7031 2.96875L43.625 4.14062C43.3802 4.09375 43.1198 4.07031 42.8438 4.07031C42.375 4.07031 42.013 4.20833 41.7578 4.48438C41.5026 4.75521 41.375 5.14583 41.375 5.65625V6.54688H44.5V5.82812C44.5 4.88542 44.7682 4.15104 45.3047 3.625C45.8464 3.09896 46.6094 2.83594 47.5938 2.83594C48.1771 2.83594 48.9141 2.99479 49.8047 3.3125L49.5625 4.53125C48.9115 4.27083 48.2891 4.14062 47.6953 4.14062C47.0755 4.14062 46.6276 4.27865 46.3516 4.55469C46.0807 4.83073 45.9453 5.25 45.9453 5.8125V6.54688H47.6797V7.66406H45.9453V15H44.5V7.66406H41.375V15H39.9297ZM50.5156 15H49.0703V6.54688H50.5156V15ZM56.2656 13.9766C56.7812 13.9766 57.2318 13.8203 57.6172 13.5078C58.0026 13.1953 58.2161 12.8047 58.2578 12.3359H59.625C59.599 12.8203 59.4323 13.2812 59.125 13.7188C58.8177 14.1562 58.4062 14.5052 57.8906 14.7656C57.3802 15.026 56.8385 15.1562 56.2656 15.1562C55.1146 15.1562 54.1979 14.7734 53.5156 14.0078C52.8385 13.237 52.5 12.1849 52.5 10.8516V10.6094C52.5 9.78646 52.651 9.05469 52.9531 8.41406C53.2552 7.77344 53.6875 7.27604 54.25 6.92188C54.8177 6.56771 55.487 6.39062 56.2578 6.39062C57.2057 6.39062 57.9922 6.67448 58.6172 7.24219C59.2474 7.8099 59.5833 8.54688 59.625 9.45312H58.2578C58.2161 8.90625 58.0078 8.45833 57.6328 8.10938C57.263 7.75521 56.8047 7.57812 56.2578 7.57812C55.5234 7.57812 54.9531 7.84375 54.5469 8.375C54.1458 8.90104 53.9453 9.66406 53.9453 10.6641V10.9375C53.9453 11.9115 54.1458 12.6615 54.5469 13.1875C54.9479 13.7135 55.5208 13.9766 56.2656 13.9766ZM64.7578 15.1562C63.612 15.1562 62.6797 14.7812 61.9609 14.0312C61.2422 13.276 60.8828 12.2682 60.8828 11.0078V10.7422C60.8828 9.90365 61.0417 9.15625 61.3594 8.5C61.6823 7.83854 62.1302 7.32292 62.7031 6.95312C63.2812 6.57812 63.9062 6.39062 64.5781 6.39062C65.6771 6.39062 66.5312 6.7526 67.1406 7.47656C67.75 8.20052 68.0547 9.23698 68.0547 10.5859V11.1875H62.3281C62.349 12.0208 62.5911 12.6953 63.0547 13.2109C63.5234 13.7214 64.1172 13.9766 64.8359 13.9766C65.3464 13.9766 65.7786 13.8724 66.1328 13.6641C66.487 13.4557 66.7969 13.1797 67.0625 12.8359L67.9453 13.5234C67.237 14.612 66.1745 15.1562 64.7578 15.1562ZM64.5781 7.57812C63.9948 7.57812 63.5052 7.79167 63.1094 8.21875C62.7135 8.64062 62.4688 9.23438 62.375 10H66.6094V9.89062C66.5677 9.15625 66.3698 8.58854 66.0156 8.1875C65.6615 7.78125 65.1823 7.57812 64.5781 7.57812ZM82.2188 11.0781C82.1562 12.3385 81.8438 13.3333 81.2812 14.0625C80.7188 14.7917 79.9661 15.1562 79.0234 15.1562C78.0495 15.1562 77.4245 14.7188 77.1484 13.8438C76.8672 14.2865 76.5443 14.6172 76.1797 14.8359C75.8203 15.0495 75.4479 15.1562 75.0625 15.1562C74.3229 15.1562 73.763 14.8542 73.3828 14.25C73.0026 13.6458 72.862 12.8099 72.9609 11.7422C73.0391 10.8828 73.2344 10.1172 73.5469 9.44531C73.8646 8.76823 74.2708 8.23698 74.7656 7.85156C75.2656 7.46615 75.7891 7.27344 76.3359 7.27344C76.7578 7.27344 77.1354 7.33073 77.4688 7.44531C77.8021 7.55469 78.1771 7.77344 78.5938 8.10156L78.1875 12.4297C78.0885 13.6328 78.4219 14.2344 79.1875 14.2344C79.776 14.2344 80.2526 13.9427 80.6172 13.3594C80.9818 12.776 81.1797 12.0156 81.2109 11.0781C81.3099 9.05208 80.9323 7.50781 80.0781 6.44531C79.2292 5.38281 77.9349 4.85156 76.1953 4.85156C75.1484 4.85156 74.2188 5.11198 73.4062 5.63281C72.5938 6.14844 71.9531 6.89583 71.4844 7.875C71.0156 8.85417 70.7526 9.98438 70.6953 11.2656C70.6328 12.5573 70.7891 13.6797 71.1641 14.6328C71.5391 15.5807 72.1094 16.3047 72.875 16.8047C73.6458 17.3099 74.5755 17.5625 75.6641 17.5625C76.1328 17.5625 76.6016 17.5052 77.0703 17.3906C77.5443 17.276 77.9375 17.1276 78.25 16.9453L78.5391 17.8438C78.2161 18.0469 77.7865 18.2135 77.25 18.3438C76.7188 18.474 76.1797 18.5391 75.6328 18.5391C74.3307 18.5391 73.2109 18.2448 72.2734 17.6562C71.3359 17.0729 70.6328 16.2292 70.1641 15.125C69.7005 14.026 69.5 12.7396 69.5625 11.2656C69.625 9.83333 69.9453 8.54688 70.5234 7.40625C71.1016 6.26042 71.8854 5.3776 72.875 4.75781C73.8646 4.13281 74.9818 3.82031 76.2266 3.82031C77.5234 3.82031 78.6354 4.11198 79.5625 4.69531C80.4896 5.27865 81.1797 6.11979 81.6328 7.21875C82.0859 8.31771 82.2812 9.60417 82.2188 11.0781ZM74.2031 11.7422C74.1302 12.4818 74.1979 13.0495 74.4062 13.4453C74.6198 13.8411 74.9557 14.0391 75.4141 14.0391C75.7266 14.0391 76.026 13.9062 76.3125 13.6406C76.6042 13.375 76.8438 12.9948 77.0312 12.5L77.0391 12.4297L77.3984 8.5C77.1068 8.34896 76.7943 8.27344 76.4609 8.27344C75.8516 8.27344 75.3464 8.58333 74.9453 9.20312C74.5495 9.82292 74.3021 10.6693 74.2031 11.7422ZM89.0312 12.7578C89.0312 12.3672 88.8828 12.0651 88.5859 11.8516C88.2943 11.6328 87.7812 11.4453 87.0469 11.2891C86.3177 11.1328 85.737 10.9453 85.3047 10.7266C84.8776 10.5078 84.5599 10.2474 84.3516 9.94531C84.1484 9.64323 84.0469 9.28385 84.0469 8.86719C84.0469 8.17448 84.3385 7.58854 84.9219 7.10938C85.5104 6.63021 86.2604 6.39062 87.1719 6.39062C88.1302 6.39062 88.9062 6.63802 89.5 7.13281C90.099 7.6276 90.3984 8.26042 90.3984 9.03125H88.9453C88.9453 8.63542 88.776 8.29427 88.4375 8.00781C88.1042 7.72135 87.6823 7.57812 87.1719 7.57812C86.6458 7.57812 86.2344 7.69271 85.9375 7.92188C85.6406 8.15104 85.4922 8.45052 85.4922 8.82031C85.4922 9.16927 85.6302 9.43229 85.9062 9.60938C86.1823 9.78646 86.6797 9.95573 87.3984 10.1172C88.1224 10.2786 88.7083 10.4714 89.1562 10.6953C89.6042 10.9193 89.9349 11.1901 90.1484 11.5078C90.3672 11.8203 90.4766 12.2031 90.4766 12.6562C90.4766 13.4115 90.1745 14.0182 89.5703 14.4766C88.9661 14.9297 88.1823 15.1562 87.2188 15.1562C86.5417 15.1562 85.9427 15.0365 85.4219 14.7969C84.901 14.5573 84.4922 14.224 84.1953 13.7969C83.9036 13.3646 83.7578 12.8984 83.7578 12.3984H85.2031C85.2292 12.8828 85.4219 13.2682 85.7812 13.5547C86.1458 13.8359 86.625 13.9766 87.2188 13.9766C87.7656 13.9766 88.2031 13.8672 88.5312 13.6484C88.8646 13.4245 89.0312 13.1276 89.0312 12.7578ZM91.9766 10.6953C91.9766 9.86719 92.138 9.1224 92.4609 8.46094C92.7891 7.79948 93.2422 7.28906 93.8203 6.92969C94.4036 6.57031 95.0677 6.39062 95.8125 6.39062C96.9635 6.39062 97.8932 6.78906 98.6016 7.58594C99.3151 8.38281 99.6719 9.44271 99.6719 10.7656V10.8672C99.6719 11.6901 99.513 12.4297 99.1953 13.0859C98.8828 13.737 98.4323 14.2448 97.8438 14.6094C97.2604 14.974 96.5885 15.1562 95.8281 15.1562C94.6823 15.1562 93.7526 14.7578 93.0391 13.9609C92.3307 13.1641 91.9766 12.1094 91.9766 10.7969V10.6953ZM93.4297 10.8672C93.4297 11.8047 93.6458 12.5573 94.0781 13.125C94.5156 13.6927 95.099 13.9766 95.8281 13.9766C96.5625 13.9766 97.1458 13.6901 97.5781 13.1172C98.0104 12.5391 98.2266 11.7318 98.2266 10.6953C98.2266 9.76823 98.0052 9.01823 97.5625 8.44531C97.125 7.86719 96.5417 7.57812 95.8125 7.57812C95.099 7.57812 94.5234 7.86198 94.0859 8.42969C93.6484 8.9974 93.4297 9.8099 93.4297 10.8672ZM103.055 15H101.609V3H103.055V15ZM106.945 15H105.5V6.54688H106.945V15ZM105.383 4.30469C105.383 4.07031 105.453 3.8724 105.594 3.71094C105.74 3.54948 105.953 3.46875 106.234 3.46875C106.516 3.46875 106.729 3.54948 106.875 3.71094C107.021 3.8724 107.094 4.07031 107.094 4.30469C107.094 4.53906 107.021 4.73438 106.875 4.89062C106.729 5.04688 106.516 5.125 106.234 5.125C105.953 5.125 105.74 5.04688 105.594 4.89062C105.453 4.73438 105.383 4.53906 105.383 4.30469ZM111.227 4.5V6.54688H112.805V7.66406H111.227V12.9062C111.227 13.2448 111.297 13.5 111.438 13.6719C111.578 13.8385 111.818 13.9219 112.156 13.9219C112.323 13.9219 112.552 13.8906 112.844 13.8281V15C112.464 15.1042 112.094 15.1562 111.734 15.1562C111.089 15.1562 110.602 14.9609 110.273 14.5703C109.945 14.1797 109.781 13.625 109.781 12.9062V7.66406H108.242V6.54688H109.781V4.5H111.227ZM113.961 10.6953C113.961 9.86719 114.122 9.1224 114.445 8.46094C114.773 7.79948 115.227 7.28906 115.805 6.92969C116.388 6.57031 117.052 6.39062 117.797 6.39062C118.948 6.39062 119.878 6.78906 120.586 7.58594C121.299 8.38281 121.656 9.44271 121.656 10.7656V10.8672C121.656 11.6901 121.497 12.4297 121.18 13.0859C120.867 13.737 120.417 14.2448 119.828 14.6094C119.245 14.974 118.573 15.1562 117.812 15.1562C116.667 15.1562 115.737 14.7578 115.023 13.9609C114.315 13.1641 113.961 12.1094 113.961 10.7969V10.6953ZM115.414 10.8672C115.414 11.8047 115.63 12.5573 116.062 13.125C116.5 13.6927 117.083 13.9766 117.812 13.9766C118.547 13.9766 119.13 13.6901 119.562 13.1172C119.995 12.5391 120.211 11.7318 120.211 10.6953C120.211 9.76823 119.99 9.01823 119.547 8.44531C119.109 7.86719 118.526 7.57812 117.797 7.57812C117.083 7.57812 116.508 7.86198 116.07 8.42969C115.633 8.9974 115.414 9.8099 115.414 10.8672ZM124.836 6.54688L124.883 7.60938C125.529 6.79688 126.372 6.39062 127.414 6.39062C129.201 6.39062 130.102 7.39844 130.117 9.41406V15H128.672V9.40625C128.667 8.79688 128.526 8.34635 128.25 8.05469C127.979 7.76302 127.555 7.61719 126.977 7.61719C126.508 7.61719 126.096 7.74219 125.742 7.99219C125.388 8.24219 125.112 8.57031 124.914 8.97656V15H123.469V6.54688H124.836ZM137.219 12.7578C137.219 12.3672 137.07 12.0651 136.773 11.8516C136.482 11.6328 135.969 11.4453 135.234 11.2891C134.505 11.1328 133.924 10.9453 133.492 10.7266C133.065 10.5078 132.747 10.2474 132.539 9.94531C132.336 9.64323 132.234 9.28385 132.234 8.86719C132.234 8.17448 132.526 7.58854 133.109 7.10938C133.698 6.63021 134.448 6.39062 135.359 6.39062C136.318 6.39062 137.094 6.63802 137.688 7.13281C138.286 7.6276 138.586 8.26042 138.586 9.03125H137.133C137.133 8.63542 136.964 8.29427 136.625 8.00781C136.292 7.72135 135.87 7.57812 135.359 7.57812C134.833 7.57812 134.422 7.69271 134.125 7.92188C133.828 8.15104 133.68 8.45052 133.68 8.82031C133.68 9.16927 133.818 9.43229 134.094 9.60938C134.37 9.78646 134.867 9.95573 135.586 10.1172C136.31 10.2786 136.896 10.4714 137.344 10.6953C137.792 10.9193 138.122 11.1901 138.336 11.5078C138.555 11.8203 138.664 12.2031 138.664 12.6562C138.664 13.4115 138.362 14.0182 137.758 14.4766C137.154 14.9297 136.37 15.1562 135.406 15.1562C134.729 15.1562 134.13 15.0365 133.609 14.7969C133.089 14.5573 132.68 14.224 132.383 13.7969C132.091 13.3646 131.945 12.8984 131.945 12.3984H133.391C133.417 12.8828 133.609 13.2682 133.969 13.5547C134.333 13.8359 134.812 13.9766 135.406 13.9766C135.953 13.9766 136.391 13.8672 136.719 13.6484C137.052 13.4245 137.219 13.1276 137.219 12.7578ZM144.055 15.1562C142.909 15.1562 141.977 14.7812 141.258 14.0312C140.539 13.276 140.18 12.2682 140.18 11.0078V10.7422C140.18 9.90365 140.339 9.15625 140.656 8.5C140.979 7.83854 141.427 7.32292 142 6.95312C142.578 6.57812 143.203 6.39062 143.875 6.39062C144.974 6.39062 145.828 6.7526 146.438 7.47656C147.047 8.20052 147.352 9.23698 147.352 10.5859V11.1875H141.625C141.646 12.0208 141.888 12.6953 142.352 13.2109C142.82 13.7214 143.414 13.9766 144.133 13.9766C144.643 13.9766 145.076 13.8724 145.43 13.6641C145.784 13.4557 146.094 13.1797 146.359 12.8359L147.242 13.5234C146.534 14.612 145.471 15.1562 144.055 15.1562ZM143.875 7.57812C143.292 7.57812 142.802 7.79167 142.406 8.21875C142.01 8.64062 141.766 9.23438 141.672 10H145.906V9.89062C145.865 9.15625 145.667 8.58854 145.312 8.1875C144.958 7.78125 144.479 7.57812 143.875 7.57812ZM153.117 7.84375C152.898 7.80729 152.661 7.78906 152.406 7.78906C151.458 7.78906 150.815 8.19271 150.477 9V15H149.031V6.54688H150.438L150.461 7.52344C150.935 6.76823 151.607 6.39062 152.477 6.39062C152.758 6.39062 152.971 6.42708 153.117 6.5V7.84375ZM157.383 13.0391L159.477 6.54688H160.953L157.922 15H156.82L153.758 6.54688H155.234L157.383 13.0391ZM163.914 15H162.469V6.54688H163.914V15ZM162.352 4.30469C162.352 4.07031 162.422 3.8724 162.562 3.71094C162.708 3.54948 162.922 3.46875 163.203 3.46875C163.484 3.46875 163.698 3.54948 163.844 3.71094C163.99 3.8724 164.062 4.07031 164.062 4.30469C164.062 4.53906 163.99 4.73438 163.844 4.89062C163.698 5.04688 163.484 5.125 163.203 5.125C162.922 5.125 162.708 5.04688 162.562 4.89062C162.422 4.73438 162.352 4.53906 162.352 4.30469ZM169.625 13.9766C170.141 13.9766 170.591 13.8203 170.977 13.5078C171.362 13.1953 171.576 12.8047 171.617 12.3359H172.984C172.958 12.8203 172.792 13.2812 172.484 13.7188C172.177 14.1562 171.766 14.5052 171.25 14.7656C170.74 15.026 170.198 15.1562 169.625 15.1562C168.474 15.1562 167.557 14.7734 166.875 14.0078C166.198 13.237 165.859 12.1849 165.859 10.8516V10.6094C165.859 9.78646 166.01 9.05469 166.312 8.41406C166.615 7.77344 167.047 7.27604 167.609 6.92188C168.177 6.56771 168.846 6.39062 169.617 6.39062C170.565 6.39062 171.352 6.67448 171.977 7.24219C172.607 7.8099 172.943 8.54688 172.984 9.45312H171.617C171.576 8.90625 171.367 8.45833 170.992 8.10938C170.622 7.75521 170.164 7.57812 169.617 7.57812C168.883 7.57812 168.312 7.84375 167.906 8.375C167.505 8.90104 167.305 9.66406 167.305 10.6641V10.9375C167.305 11.9115 167.505 12.6615 167.906 13.1875C168.307 13.7135 168.88 13.9766 169.625 13.9766ZM178.117 15.1562C176.971 15.1562 176.039 14.7812 175.32 14.0312C174.602 13.276 174.242 12.2682 174.242 11.0078V10.7422C174.242 9.90365 174.401 9.15625 174.719 8.5C175.042 7.83854 175.49 7.32292 176.062 6.95312C176.641 6.57812 177.266 6.39062 177.938 6.39062C179.036 6.39062 179.891 6.7526 180.5 7.47656C181.109 8.20052 181.414 9.23698 181.414 10.5859V11.1875H175.688C175.708 12.0208 175.951 12.6953 176.414 13.2109C176.883 13.7214 177.477 13.9766 178.195 13.9766C178.706 13.9766 179.138 13.8724 179.492 13.6641C179.846 13.4557 180.156 13.1797 180.422 12.8359L181.305 13.5234C180.596 14.612 179.534 15.1562 178.117 15.1562ZM177.938 7.57812C177.354 7.57812 176.865 7.79167 176.469 8.21875C176.073 8.64062 175.828 9.23438 175.734 10H179.969V9.89062C179.927 9.15625 179.729 8.58854 179.375 8.1875C179.021 7.78125 178.542 7.57812 177.938 7.57812ZM183.125 14.2422C183.125 13.9922 183.198 13.7839 183.344 13.6172C183.495 13.4505 183.719 13.3672 184.016 13.3672C184.312 13.3672 184.536 13.4505 184.688 13.6172C184.844 13.7839 184.922 13.9922 184.922 14.2422C184.922 14.4818 184.844 14.6823 184.688 14.8438C184.536 15.0052 184.312 15.0859 184.016 15.0859C183.719 15.0859 183.495 15.0052 183.344 14.8438C183.198 14.6823 183.125 14.4818 183.125 14.2422ZM190.703 13.9766C191.219 13.9766 191.669 13.8203 192.055 13.5078C192.44 13.1953 192.654 12.8047 192.695 12.3359H194.062C194.036 12.8203 193.87 13.2812 193.562 13.7188C193.255 14.1562 192.844 14.5052 192.328 14.7656C191.818 15.026 191.276 15.1562 190.703 15.1562C189.552 15.1562 188.635 14.7734 187.953 14.0078C187.276 13.237 186.938 12.1849 186.938 10.8516V10.6094C186.938 9.78646 187.089 9.05469 187.391 8.41406C187.693 7.77344 188.125 7.27604 188.688 6.92188C189.255 6.56771 189.924 6.39062 190.695 6.39062C191.643 6.39062 192.43 6.67448 193.055 7.24219C193.685 7.8099 194.021 8.54688 194.062 9.45312H192.695C192.654 8.90625 192.445 8.45833 192.07 8.10938C191.701 7.75521 191.242 7.57812 190.695 7.57812C189.961 7.57812 189.391 7.84375 188.984 8.375C188.583 8.90104 188.383 9.66406 188.383 10.6641V10.9375C188.383 11.9115 188.583 12.6615 188.984 13.1875C189.385 13.7135 189.958 13.9766 190.703 13.9766ZM195.305 10.6953C195.305 9.86719 195.466 9.1224 195.789 8.46094C196.117 7.79948 196.57 7.28906 197.148 6.92969C197.732 6.57031 198.396 6.39062 199.141 6.39062C200.292 6.39062 201.221 6.78906 201.93 7.58594C202.643 8.38281 203 9.44271 203 10.7656V10.8672C203 11.6901 202.841 12.4297 202.523 13.0859C202.211 13.737 201.76 14.2448 201.172 14.6094C200.589 14.974 199.917 15.1562 199.156 15.1562C198.01 15.1562 197.081 14.7578 196.367 13.9609C195.659 13.1641 195.305 12.1094 195.305 10.7969V10.6953ZM196.758 10.8672C196.758 11.8047 196.974 12.5573 197.406 13.125C197.844 13.6927 198.427 13.9766 199.156 13.9766C199.891 13.9766 200.474 13.6901 200.906 13.1172C201.339 12.5391 201.555 11.7318 201.555 10.6953C201.555 9.76823 201.333 9.01823 200.891 8.44531C200.453 7.86719 199.87 7.57812 199.141 7.57812C198.427 7.57812 197.852 7.86198 197.414 8.42969C196.977 8.9974 196.758 9.8099 196.758 10.8672ZM206.172 6.54688L206.211 7.48438C206.831 6.75521 207.667 6.39062 208.719 6.39062C209.901 6.39062 210.706 6.84375 211.133 7.75C211.414 7.34375 211.779 7.01562 212.227 6.76562C212.68 6.51562 213.214 6.39062 213.828 6.39062C215.682 6.39062 216.625 7.3724 216.656 9.33594V15H215.211V9.42188C215.211 8.81771 215.073 8.36719 214.797 8.07031C214.521 7.76823 214.057 7.61719 213.406 7.61719C212.87 7.61719 212.424 7.77865 212.07 8.10156C211.716 8.41927 211.51 8.84896 211.453 9.39062V15H210V9.46094C210 8.23177 209.398 7.61719 208.195 7.61719C207.247 7.61719 206.599 8.02083 206.25 8.82812V15H204.805V6.54688H206.172Z" fill="white"/>
<path fill-rule="evenodd" clip-rule="evenodd" d="M1.84404 4.92443C1.82593 4.98088 1.81744 5.03927 1.81816 5.09728V16C1.81816 16.3012 2.06236 16.5454 2.36361 16.5454H17.6363C17.9375 16.5454 18.1817 16.3012 18.1817 16V5.0973C18.1824 5.03928 18.1739 4.98088 18.1558 4.92443C18.135 4.85932 18.1022 4.79953 18.0601 4.74762C18.0112 4.68705 17.9515 4.63951 17.8858 4.60579C17.8062 4.56494 17.7179 4.54438 17.629 4.54548H2.37088C2.35732 4.54531 2.34377 4.54565 2.33026 4.54649C2.18228 4.55564 2.03919 4.62476 1.93996 4.74735C1.933 4.75593 1.92627 4.76479 1.91976 4.7739C1.88601 4.82115 1.86087 4.87195 1.84404 4.92443ZM15.9342 5.63639H4.06567L9.99993 9.87514L15.9342 5.63639ZM17.0908 6.15085L10.317 10.9893C10.1273 11.1248 9.87255 11.1248 9.6829 10.9893L2.90906 6.15085V15.4545H17.0908V6.15085Z" fill="white"/>
</svg>
